<svg height="430pt" viewBox="0 -14 430.08172 430" width="430pt" xmlns="http://www.w3.org/2000/svg"><path d="m292.390625 6.871094h-263.921875c-11.953125 0-21.640625 9.6875-21.640625 21.636718v188.832032c0 11.941406 9.6875 21.636718 21.640625 21.636718h153.578125l50.066406 47.78125v-47.78125h60.277344c11.949219 0 21.636719-9.695312 21.636719-21.636718v-188.832032c0-11.949218-9.6875-21.636718-21.636719-21.636718" fill="#a1b7ff"/><path d="m292.390625 6.871094v-6.8320315h-263.921875c-15.726562 0-28.4609375 12.7382815-28.46875 28.4687495v188.832032c.0078125 15.710937 12.738281 28.457031 28.46875 28.457031h150.84375l48.082031 45.898437c1.984375 1.894532 4.878907 2.421876 7.398438 1.34375 2.523437-1.078124 4.140625-3.535156 4.140625-6.28125v-40.960937h53.457031c15.722656 0 28.460937-12.746094 28.46875-28.457031v-188.832032c-.007813-15.730468-12.746094-28.4687495-28.46875-28.4687495v13.6523435c8.183594.015625 14.800781 6.636719 14.808594 14.816406v188.832032c-.007813 8.167968-6.625 14.789062-14.808594 14.804687h-60.277344c-1.804687 0-3.558593.730469-4.832031 2-1.269531 1.269531-1.996094 3.035157-1.996094 4.832031v31.832032l-38.519531-36.769532c-1.261719-1.214843-2.96875-1.894531-4.71875-1.894531h-153.578125c-8.183594-.015625-14.800781-6.636719-14.820312-14.804687v-188.832032c.019531-8.179687 6.636718-14.800781 14.820312-14.816406h263.921875z" fill="#54596e"/><path d="m13.648438 212.625v4.714844c.019531 8.167968 6.636718 14.789062 14.820312 14.804687h153.578125c1.746094 0 3.453125.679688 4.71875 1.894531l38.515625 36.769532v-31.832032c0-1.796874.730469-3.5625 2-4.832031s3.023438-2 4.832031-2h60.277344c8.179687-.015625 14.800781-6.636719 14.808594-14.804687v-4.703125c-3.871094 3.632812-9.082031 5.859375-14.808594 5.859375h-263.921875c-5.734375 0-10.945312-2.234375-14.820312-5.871094" fill="#96a9e9"/><path d="m314.027344 196.855469c0 6.21875-2.628906 11.828125-6.832032 15.777343v4.703126c-.007812 8.171874-6.625 14.792968-14.808593 14.808593h-60.277344c-1.804687 0-3.558594.730469-4.832031 2-1.269532 1.269531-1.996094 3.03125-1.996094 4.828125v31.835938l-38.519531-36.773438c-1.261719-1.210937-2.96875-1.890625-4.714844-1.890625h-153.578125c-8.183594-.015625-14.800781-6.636719-14.820312-14.808593v-4.710938c-4.199219-3.949219-6.820313-9.550781-6.820313-15.769531v20.480469c0 11.953124 9.6875 21.636718 21.640625 21.636718h155.851562l47.792969 47.785156v-47.785156h60.277344c11.949219 0 21.636719-9.683594 21.636719-21.636718z" fill="#54596e"/><path d="m393.433594 348.199219h-41.859375v-34.132813h-34.132813v34.132813h-38.445312c-16.472656 0-33.234375 11.441406-33.234375 25.5625v22.226562h177.492187v-25.152343c0-12.503907-15.234375-22.636719-29.820312-22.636719zm0 0" fill="#999"/><path d="m393.433594 348.199219v-6.824219h-35.035156v-27.308594c0-1.800781-.726563-3.554687-1.996094-4.828125-1.273438-1.269531-3.03125-1.996093-4.828125-1.996093h-34.132813c-1.796875 0-3.554687.726562-4.828125 1.996093-1.269531 1.273438-2 3.027344-2 4.828125v27.304688l-31.617187.003906c-9.820313.027344-19.359375 3.308594-26.855469 8.824219-3.742187 2.773437-6.988281 6.140625-9.363281 10.105469-2.371094 3.953124-3.847656 8.558593-3.84375 13.457031v22.226562c0 1.820313.710937 3.535157 2 4.824219 1.292968 1.292969 3.003906 2 4.828125 2h177.492187c1.824219 0 3.539063-.707031 4.828125-2 1.289063-1.289062 2-3.003906 2-4.824219v-25.152343c.003907-4.53125-1.402343-8.773438-3.613281-12.375-3.335938-5.417969-8.367188-9.5625-14.101562-12.484376-5.75-2.902343-12.273438-4.59375-18.933594-4.601562v13.648438c5.714844-.03125 11.976562 2.097656 16.367187 5.328124 2.203125 1.597657 3.925781 3.433594 5.023438 5.230469 1.101562 1.816407 1.597656 3.527344 1.605469 5.25v18.324219h-163.839844v-15.394531c.003906-2.167969.621094-4.285157 1.90625-6.453125 1.910156-3.230469 5.441406-6.410156 9.867187-8.675782 4.410157-2.277343 9.640625-3.617187 14.632813-3.609374h38.445312c1.824219 0 3.535156-.707032 4.828125-1.996094 1.289063-1.289063 2-3.003906 2-4.828125v-27.3125h20.480469v27.3125c0 1.824219.707031 3.539062 2 4.828125 1.289062 1.289062 3.003906 1.996094 4.824219 1.996094h41.859375zm0 0" fill="#54596e"/><path d="m395.949219 290.175781 3.414062-41.667969c0-27.886718-21.214843-50.492187-47.375-50.492187h-34.960937c-26.160156 0-47.371094 22.605469-47.371094 50.492187l3.414062 41.667969" fill="#bfad88"/><path d="m402.75 290.730469 3.414062-41.667969.023438-.554688c0-15.6875-5.972656-29.984374-15.726562-40.375-9.734376-10.398437-23.398438-16.953124-38.472657-16.945312h-34.960937c-15.078125-.007812-28.742188 6.546875-38.476563 16.945312-9.753906 10.390626-15.722656 24.6875-15.722656 40.375l.019531.554688 3.414063 41.667969c.308593 3.757812 3.601562 6.554687 7.359375 6.246093 3.761718-.308593 6.558594-3.601562 6.25-7.359374l-3.414063-41.667969-6.804687.558593h6.828125c0-12.203124 4.636719-23.152343 12.027343-31.035156 7.414063-7.878906 17.4375-12.628906 28.519532-12.636718h34.960937c11.082031.007812 21.105469 4.757812 28.515625 12.636718 7.390625 7.878906 12.03125 18.832032 12.03125 31.035156h6.824219l-6.804687-.558593-3.414063 41.664062c-.308594 3.757813 2.488281 7.054688 6.246094 7.363281 3.757812.3125 7.054687-2.484374 7.363281-6.242187zm0 0" fill="#54596e"/><path d="m311.875 259.066406c-33.933594 0-38.804688-29.585937-38.804688 3.308594v27.511719c0 14.675781 6.976563 33.921875 18.851563 48.082031 8.996094 10.71875 25.300781 17.058594 42.585937 17.058594 17.289063 0 33.59375-6.339844 42.585938-17.058594 11.875-14.160156 18.855469-33.40625 18.855469-48.082031v-27.511719c0-32.894531-50.148438-3.308594-84.074219-3.308594zm0 0" fill="#ffd578"/><g fill="#54596e"><path d="m311.875 259.066406v-6.828125c-9.621094-.023437-16.21875-2.609375-21.292969-5.300781-2.539062-1.359375-4.640625-2.753906-6.640625-3.992188-1.011718-.621093-1.988281-1.210937-3.15625-1.761718-1.171875-.519532-2.554687-1.132813-4.75-1.167969-1.195312-.007813-2.65625.269531-3.957031.957031-1.140625.59375-2.085937 1.4375-2.753906 2.28125-1.175781 1.5-1.65625 2.882813-2.023438 4.175782-.515625 1.953124-.71875 3.882812-.871093 6.285156-.140626 2.386718-.191407 5.210937-.191407 8.660156v27.511719c.011719 8.410156 1.953125 17.589843 5.429688 26.675781 3.484375 9.078125 8.53125 18.042969 15.019531 25.789062 5.390625 6.414063 12.671875 11.234376 20.894531 14.507813 8.230469 3.269531 17.445313 4.988281 26.925781 4.992187 9.476563-.003906 18.691407-1.722656 26.921876-4.992187 8.222656-3.273437 15.503906-8.09375 20.894531-14.503906 6.488281-7.75 11.535156-16.714844 15.023437-25.792969 3.476563-9.085938 5.414063-18.265625 5.425782-26.675781v-27.511719c0-3.554688-.476563-6.808594-1.585938-9.785156-1.613281-4.476563-4.988281-8.121094-8.9375-10.035156-3.949219-1.960938-8.171875-2.527344-12.480469-2.539063-10.304687.054687-21.988281 3.304687-34.042969 6.320313-11.980468 3.0625-24.199218 5.9375-33.851562 5.90625v13.648437c12.152344-.03125 25.085938-3.269531 37.207031-6.320313 12.046875-3.097656 23.410157-5.964843 30.6875-5.90625 2.007813 0 3.65625.203126 4.859375.535157 1.835938.539062 2.511719 1.085937 3.152344 1.960937.621094.886719 1.335938 2.695313 1.339844 6.210938v27.515625c.011718 6.257812-1.539063 14.039062-4.519532 21.785156-2.972656 7.753906-7.351562 15.492187-12.738281 21.90625-3.605469 4.308594-8.972656 8.015625-15.472656 10.589844-6.492187 2.585937-14.074219 4.035156-21.882813 4.03125-7.808593.003906-15.390624-1.449219-21.882812-4.03125-6.5-2.574219-11.871094-6.28125-15.472656-10.589844-5.386719-6.414063-9.765625-14.152344-12.738282-21.90625-2.980468-7.746094-4.53125-15.527344-4.519531-21.785156v-27.515625c-.015625-5.726563.195313-9.484375.492188-10.925782l.117187-.515624-3.40625-1.207032 2.355469 2.625c.882813-.820312 1.039063-1.417968 1.050781-1.417968l-3.40625-1.207032 2.355469 2.625-3.414063-3.808594v5.128907c.910157.0625 2.5625-.476563 3.414063-1.320313l-3.414063-3.804687v5.125-3.726563l-1.039062 3.597656 1.039062.128907v-3.726563l-1.039062 3.59375.339844-1.1875-.441406 1.15625.101562.035156.339844-1.191406-.441406 1.15625c.0625-.019531 1.550781.824219 3.453124 2.050782 5.863282 3.734374 16.910157 10.402343 33.523438 10.335937zm0 0"/><path d="m102.402344 75.132812v102.402344h27.304687v-102.402344"/><path d="m170.667969 177.535156v-75.101562l27.671875.003906c1.972656.003906 3.589844.75 4.75 1.855469 1.148437 1.136719 1.699218 2.398437 1.710937 3.867187v69.375h27.304688v-69.375c.011719-9.230468-3.941407-17.660156-10.070313-23.53125-6.125-5.90625-14.558594-9.496094-23.695312-9.492187h-54.980469v102.398437zm0 0"/><path d="m102.402344 41h27.304687v27.308594h-27.304687zm0 0"/></g></svg>