<svg height="430pt" viewBox="0 -14 430.07831 430" width="430pt" xmlns="http://www.w3.org/2000/svg"><path d="m292.382812 6.871094h-263.914062c-11.953125 0-21.648438 9.683594-21.648438 21.636718v188.828126c0 11.945312 9.695313 21.636718 21.648438 21.636718h153.570312l50.0625 47.785156v-47.785156h60.28125c11.949219 0 21.644532-9.691406 21.644532-21.636718v-188.828126c0-11.953124-9.695313-21.636718-21.644532-21.636718" fill="#f3f3f3"/><path d="m292.382812 6.871094v-6.8320315h-263.914062c-15.726562 0-28.46875 12.7382815-28.46875 28.4687495v188.828126c0 15.714843 12.738281 28.457031 28.46875 28.457031h150.832031l48.09375 45.902343c1.972657 1.890626 4.878907 2.417969 7.394531 1.34375 2.515626-1.078124 4.144532-3.539062 4.144532-6.28125v-40.964843h53.449218c15.730469 0 28.457032-12.742188 28.464844-28.457031v-188.828126c0-15.730468-12.746094-28.4687495-28.464844-28.4687495v13.6484375c8.179688.019531 14.796876 6.640625 14.816407 14.820312v188.828126c-.019531 8.164062-6.636719 14.792968-14.816407 14.808593h-60.28125c-1.796874 0-3.550781.730469-4.820312 2-1.28125 1.269531-2.007812 3.03125-2.007812 4.828125v31.835938l-38.519532-36.773438c-1.261718-1.210937-2.96875-1.890625-4.714844-1.890625h-153.570312c-8.183594-.015625-14.800781-6.644531-14.820312-14.808593v-188.828126c.019531-8.179687 6.636718-14.800781 14.820312-14.820312h263.914062z" fill="#54596e"/><path d="m307.199219 212.625c-3.875 3.636719-9.085938 5.867188-14.816407 5.867188h-263.914062c-5.734375 0-10.945312-2.230469-14.820312-5.867188v4.710938c.019531 8.164062 6.636718 14.789062 14.820312 14.804687h153.570312c1.746094 0 3.457032.679687 4.714844 1.894531l38.519532 36.769532v-31.832032c0-1.796875.726562-3.558594 2.007812-4.828125 1.269531-1.273437 3.023438-2.003906 4.820312-2.003906h60.28125c8.179688-.015625 14.796876-6.640625 14.816407-14.804687z" fill="#dbdcdf"/><path d="m314.027344 196.851562c0 6.222657-2.628906 11.828126-6.832032 15.773438v4.710938c-.015624 8.164062-6.632812 14.789062-14.816406 14.804687h-60.277344c-1.796874 0-3.550781.730469-4.824218 2.003906-1.277344 1.269531-2.007813 3.03125-2.007813 4.828125v31.832032l-38.515625-36.769532c-1.261718-1.214844-2.96875-1.894531-4.71875-1.894531h-153.566406c-8.183594-.015625-14.800781-6.640625-14.820312-14.804687v-4.710938c-4.203126-3.945312-6.828126-9.554688-6.828126-15.773438v20.484376c0 11.949218 9.695313 21.636718 21.644532 21.636718h155.851562l47.785156 47.78125v-47.78125h60.277344c11.953125 0 21.644532-9.6875 21.644532-21.636718v-20.484376" fill="#54596e"/><path d="m393.433594 348.199219h-41.863282v-34.132813h-34.132812v34.132813h-38.449219c-16.46875 0-33.230469 11.441406-33.230469 25.5625v22.222656h177.492188v-25.152344c0-12.5-15.234375-22.632812-29.816406-22.632812zm0 0" fill="#8065c4"/><path d="m393.433594 348.199219v-6.828125h-35.035156v-27.304688c0-1.800781-.730469-3.558594-2.003907-4.832031-1.269531-1.269531-3.027343-1.996094-4.824219-1.996094h-34.132812c-1.796875 0-3.558594.726563-4.828125 1.996094-1.269531 1.273437-2 3.03125-2 4.832031v27.300782l-31.621094.003906c-9.816406.027344-19.351562 3.308594-26.851562 8.824218-3.742188 2.773438-6.984375 6.144532-9.363281 10.109376-2.367188 3.949218-3.847657 8.558593-3.84375 13.457031v22.222656c0 1.824219.710937 3.539063 2.003906 4.828125 1.289062 1.289062 3.003906 1.996094 4.824218 1.996094h177.492188c1.824219 0 3.539062-.707032 4.828125-1.996094s2-3.003906 2-4.828125v-25.152344c.003906-4.527343-1.402344-8.773437-3.609375-12.371093-3.339844-5.417969-8.371094-9.566407-14.105469-12.488282-5.75-2.902344-12.273437-4.589844-18.929687-4.597656v13.648438c5.710937-.03125 11.972656 2.097656 16.359375 5.324218 2.203125 1.597656 3.929687 3.433594 5.027343 5.234375 1.101563 1.816407 1.597657 3.527344 1.605469 5.25v18.320313h-163.839843v-15.394532c.003906-2.167968.621093-4.285156 1.910156-6.449218 1.910156-3.226563 5.441406-6.414063 9.863281-8.675782 4.410156-2.277343 9.640625-3.617187 14.632813-3.609374h38.449218c1.820313 0 3.535156-.707032 4.824219-1.996094 1.292969-1.292969 2-3.003906 2-4.828125v-27.3125h20.480469v27.3125c0 1.824219.710937 3.535156 2 4.828125 1.292968 1.289062 3.003906 1.996094 4.828125 1.996094h41.863281v-6.824219zm0 0" fill="#54596e"/><path d="m395.941406 290.171875 3.414063-41.664063c0-27.890624-21.210938-50.496093-47.371094-50.496093h-34.960937c-26.164063 0-47.375 22.605469-47.375 50.496093l3.414062 41.664063" fill="#bfad88"/><path d="m402.746094 290.730469 3.414062-41.667969.023438-.554688c0-15.6875-5.96875-29.980468-15.722656-40.378906-9.734376-10.394531-23.398438-16.949218-38.476563-16.941406h-34.960937c-15.078126-.007812-28.742188 6.546875-38.476563 16.941406-9.753906 10.398438-15.722656 24.691406-15.722656 40.378906l.019531.554688 3.414062 41.667969c.308594 3.753906 3.605469 6.550781 7.363282 6.246093 3.757812-.3125 6.554687-3.605468 6.246094-7.359374l-3.414063-41.671876-6.804687.5625h6.828124c0-12.203124 4.636719-23.15625 12.027344-31.035156 7.410156-7.878906 17.433594-12.628906 28.519532-12.636718h34.960937c11.082031.007812 21.105469 4.757812 28.519531 12.636718 7.390625 7.875 12.027344 18.828125 12.027344 31.035156h6.824219l-6.804688-.5625-3.410156 41.667969c-.3125 3.753907 2.484375 7.054688 6.242187 7.363281 3.757813.304688 7.054688-2.488281 7.363282-6.246093zm0 0" fill="#54596e"/><path d="m311.867188 259.066406c-33.929688 0-38.800782-29.589844-38.800782 3.304688v27.515625c0 14.671875 6.980469 33.917969 18.851563 48.078125 8.996093 10.722656 25.300781 17.0625 42.585937 17.0625 17.289063 0 33.589844-6.339844 42.585938-17.0625 11.875-14.160156 18.855468-33.40625 18.855468-48.078125v-27.515625c-.003906-32.894532-50.144531-3.304688-84.078124-3.304688zm0 0" fill="#ffd578"/><path d="m311.867188 259.066406v-6.828125c-9.617188-.023437-16.214844-2.609375-21.289063-5.300781-2.539063-1.363281-4.644531-2.753906-6.640625-3.996094-1.011719-.617187-1.988281-1.210937-3.15625-1.757812-1.171875-.523438-2.554688-1.132813-4.75-1.167969-1.195312-.011719-2.65625.269531-3.957031.957031-1.140625.589844-2.085938 1.4375-2.753907 2.28125-1.175781 1.5-1.65625 2.886719-2.023437 4.175782-.515625 1.949218-.71875 3.882812-.871094 6.285156-.140625 2.382812-.1875 5.207031-.1875 8.65625v27.515625c.011719 8.410156 1.949219 17.589843 5.425781 26.675781 3.488282 9.078125 8.53125 18.042969 15.023438 25.785156 5.390625 6.414063 12.671875 11.238282 20.894531 14.511719 8.230469 3.265625 17.445313 4.984375 26.921875 4.988281 9.476563-.003906 18.691406-1.722656 26.921875-4.988281 8.222657-3.273437 15.503907-8.097656 20.894531-14.507813 6.488282-7.746093 11.535157-16.710937 15.023438-25.789062 3.476562-9.085938 5.414062-18.265625 5.425781-26.675781v-27.515625c0-3.550782-.476562-6.808594-1.585937-9.78125-1.613282-4.476563-4.988282-8.125-8.9375-10.035156-3.945313-1.960938-8.167969-2.53125-12.480469-2.542969-10.304687.058593-21.984375 3.304687-34.042969 6.320312-11.980468 3.066407-24.203125 5.9375-33.855468 5.90625v13.648438c12.15625-.027344 25.09375-3.269531 37.210937-6.316407 12.046875-3.097656 23.410156-5.964843 30.6875-5.910156 2.007813 0 3.65625.203125 4.859375.539063 1.835938.539062 2.511719 1.085937 3.152344 1.957031.621094.890625 1.335937 2.695312 1.339844 6.214844v27.511718c.011718 6.261719-1.539063 14.042969-4.519532 21.789063-2.972656 7.753906-7.351562 15.488281-12.738281 21.90625-3.601563 4.304687-8.972656 8.011719-15.472656 10.589844-6.492188 2.582031-14.074219 4.03125-21.882813 4.03125s-15.386718-1.449219-21.878906-4.03125c-6.5-2.578125-11.871094-6.285157-15.476562-10.59375-5.382813-6.414063-9.765626-14.148438-12.734376-21.902344-2.984374-7.746094-4.535156-15.527344-4.523437-21.789063v-27.511718c-.015625-5.730469.199219-9.484375.492187-10.925782l.117188-.519531-3.40625-1.203125 2.359375 2.621094c.878906-.820312 1.035156-1.417969 1.046875-1.417969l-3.40625-1.203125 2.359375 2.621094-3.417969-3.804688v5.125c.910156.0625 2.566406-.476562 3.417969-1.316406l-3.417969-3.808594v5.128907-3.726563l-1.042968 3.59375 1.042968.128906v-3.722656l-1.042968 3.59375.34375-1.191406-.441407 1.15625.097657.035156.34375-1.1875-.441407 1.15625c.058594-.019531 1.550781.820313 3.453125 2.050782 5.863282 3.730468 16.910156 10.402343 33.523438 10.335937v-6.824219zm0 0" fill="#54596e"/><path d="m245.757812 54.652344-19.226562 4.804687c-7.378906-7.191406-17.445312-11.632812-28.5625-11.632812-22.617188 0-40.957031 18.339843-40.957031 40.960937-40.960938 0-75.09375-34.132812-75.09375-34.132812 0 27.308594 13.652343 40.960937 13.652343 40.960937h-13.652343c0 20.480469 20.480469 34.132813 20.480469 34.132813h-13.65625c0 20.480468 34.132812 27.304687 34.132812 27.304687-20.476562 13.65625-47.785156 13.65625-47.785156 13.65625h-.011719c17.113281 12.859375 38.394531 20.480469 61.453125 20.480469 56.550781 0 102.398438-45.847656 102.398438-102.402344 0-6.804687-1.6875-13.210937-4.625-18.867187zm0 0" fill="#55a6ff"/></svg>