<svg id="Capa_1" enable-background="new 0 0 512 512" height="512" viewBox="0 0 512 512" width="512" xmlns="http://www.w3.org/2000/svg"><g><g><g><path d="m489.5 474.5h-467v-272.42c0-16.569 13.431-30 30-30h407c16.569 0 30 13.431 30 30z" fill="#3d6d93"/><path d="m459.5 172.08h-30c16.569 0 30 13.431 30 30v257.42h30v-257.42c0-16.568-13.431-30-30-30z" fill="#335e80"/><path d="m52.5 474.5v-265.419c0-3.866 3.134-7 7-7h393c3.866 0 7 3.134 7 7v265.419z" fill="#e9f5ff"/><path d="m497.5 459.5h-483c-3.866 0-7 3.134-7 7 0 20.987 17.013 38 38 38h421c20.987 0 38-17.013 38-38 0-3.866-3.134-7-7-7z" fill="#335e80"/><path d="m497.5 459.5h-30c3.866 0 7 3.134 7 7 0 20.987-17.013 38-38 38h30c20.987 0 38-17.013 38-38 0-3.866-3.134-7-7-7z" fill="#2e5973"/></g><path d="m97.579 459.5v-137.992c0-19.562 12.117-37.079 30.421-43.979l76.007-28.652c3.355-1.265 6.221-3.368 8.398-6.017 2.876-3.502 19.547-7.959 19.547-12.697v-30.58h48.097v30.58c0 4.162 16.289 8.107 18.552 11.378s5.499 5.869 9.394 7.337l76.005 28.651c18.305 6.9 30.421 24.417 30.421 43.979v137.992z" fill="#aee69c"/><g><path d="m384 277.529-76.007-28.652c-3.355-1.265-6.222-3.368-8.398-6.017-2.876-3.502-19.547-7.959-19.547-12.697v-30.58h-15v45.58c0 8.324 5.156 15.778 12.945 18.714l76.007 28.652c18.305 6.9 30.421 24.417 30.421 43.979v122.992h30v-137.992c0-19.562-12.116-37.078-30.421-43.979z" fill="#89daa4"/></g><path d="m256 268.357c18.715 0 35.019-10.283 43.6-25.5-2.876-3.502-4.552-7.955-4.552-12.694v-30.58h-78.097v30.58c0 4.739-1.675 9.192-4.552 12.694 8.582 15.217 24.886 25.5 43.601 25.5z" fill="#ffcebf"/><path d="m277.321 263.594c9.4-4.439 17.195-11.722 22.279-20.737-.761-.928-1.429-1.919-2.014-2.967-1.65-2.96-2.535-6.336-2.538-9.726v-30.58h-30v45.58c0 8.078 4.866 15.325 12.273 18.43z" fill="#ffb09e"/><g><g><path d="m173.895 140.903h24.993v-38.407h-24.993c-10.606 0-19.204 8.598-19.204 19.204 0 10.605 8.598 19.203 19.204 19.203z" fill="#ffb09e"/><path d="m338.105 140.903h-24.993v-38.407h24.993c10.606 0 19.204 8.598 19.204 19.204 0 10.605-8.598 19.203-19.204 19.203z" fill="#ffcebf"/></g><g><path d="m328.112 103.111h-144.224v-63.35c0-17.818 14.444-32.261 32.261-32.261h79.7c17.818 0 32.261 14.444 32.261 32.261v63.35z" fill="#e19974"/><path d="m295.85 7.5h-30c17.818 0 32.261 14.444 32.261 32.261v63.35h30v-63.35c.001-17.817-14.443-32.261-32.261-32.261z" fill="#dc8758"/><path d="m328.112 103.111c-3.822-7.19-10.297-16.386-20.682-19.473-12.46-3.703-18.983 4.825-35.909 4.768-19.248-.065-23.803-11.136-39.326-12.353-11.161-.875-27.278 3.4-48.305 27.057v50.847c0 25.445 13.17 47.814 33.063 60.656 11.254 7.265 25.498 7.912 39.888 7.912 0 0 26.981-.655 38.241-7.932 19.876-12.845 33.032-35.204 33.032-60.636v-50.846z" fill="#ffcebf"/><g><path d="m307.429 83.639c-8.798-2.615-14.64.867-23.272 3.12 6.567 4.217 11.037 10.864 13.954 16.352v50.847c.232 4.417 1.01 27.631-16.321 45.702-16.03 16.714-41.277 22.483-64.839 14.953 8.989 5.479 20.731 10.494 34.729 11.353 1.468.09 2.909.131 4.319.129 39.826 0 72.111-32.297 72.111-72.137v-50.847c-3.821-7.19-10.296-16.386-20.681-19.472z" fill="#ffb09e"/></g></g></g><g><g><path d="m355.002 474.5h-198.004c-16.569 0-30-13.431-30-30v-116.143c0-16.569 13.431-30 30-30h198.003c16.569 0 30 13.431 30 30v116.143c.001 16.569-13.431 30-29.999 30z" fill="#f58a97"/><path d="m355.002 298.357h-30c16.569 0 30 13.431 30 30v116.143c0 16.569-13.431 30-30 30h30c16.569 0 30-13.431 30-30v-116.143c0-16.569-13.432-30-30-30z" fill="#f07281"/><path d="m285.744 391.488-52.688 35.411c-4.049 2.722-9.496-.18-9.496-5.059v-70.823c0-4.879 5.447-7.781 9.496-5.059l52.688 35.411c3.594 2.416 3.594 7.703 0 10.119z" fill="#fff"/></g><g><g><path d="m126.727 427.605h-21.656c-11.196 0-20.272-9.076-20.272-20.272v-26.809c0-11.196 9.076-20.272 20.272-20.272h21.656c5.385 0 9.751 4.366 9.751 9.751v47.851c0 5.385-4.366 9.751-9.751 9.751z" fill="#ffcebf"/></g><path d="m126.727 360.252h-21.656c-.05 0-.099.007-.149.008 5.316.08 9.602 4.408 9.602 9.743v47.851c0 5.335-4.286 9.663-9.602 9.743.05 0 .099.008.149.008h21.656c5.385 0 9.751-4.365 9.751-9.751v-47.851c0-5.385-4.366-9.751-9.751-9.751z" fill="#ffb09e"/><g><path d="m385.273 427.605h21.656c11.196 0 20.272-9.076 20.272-20.272v-26.809c0-11.196-9.076-20.272-20.272-20.272h-21.656c-5.385 0-9.751 4.366-9.751 9.751v47.851c0 5.385 4.366 9.751 9.751 9.751z" fill="#ffcebf"/></g><path d="m406.929 360.252h-21.656c-.361 0-.715.023-1.066.061 10.632.627 19.067 9.422 19.067 20.211v26.809c0 10.789-8.435 19.584-19.067 20.211.35.038.705.061 1.066.061h21.656c11.196 0 20.272-9.076 20.272-20.272v-26.809c0-11.196-9.076-20.272-20.272-20.272z" fill="#ffb09e"/></g></g></g><path d="m221.208 150.355c4.142 0 7.5-3.358 7.5-7.5v-13.922c0-4.142-3.358-7.5-7.5-7.5s-7.5 3.358-7.5 7.5v13.922c0 4.143 3.358 7.5 7.5 7.5zm68.72 224.79-52.689-35.412c-8.897-6.095-21.265.687-21.179 11.285v70.823c-.105 10.561 12.385 17.322 21.18 11.284l52.688-35.411c7.894-5.226 7.826-17.396 0-22.569zm-58.868 44.059v-65.552l48.767 32.776zm266.44 32.796h-.5v-249.92c0-20.678-16.822-37.5-37.5-37.5h-124.618c.466-3.478.729-7.018.729-10.622v-5.556h2.494c14.725 0 26.704-11.979 26.704-26.704s-11.979-26.704-26.704-26.704h-2.494v-55.232c0-21.925-17.837-39.762-39.761-39.762h-79.7c-21.924 0-39.761 17.837-39.761 39.762v55.233h-2.494c-14.725 0-26.704 11.979-26.704 26.704s11.979 26.704 26.704 26.704h2.494v5.556c0 3.603.263 7.144.729 10.622h-124.618c-20.678 0-37.5 16.822-37.5 37.5v249.919h-.5c-7.995 0-14.5 6.505-14.5 14.5 0 12.166 4.734 23.593 13.323 32.169 8.584 8.597 20.011 13.331 32.177 13.331h421c25.089 0 45.5-20.411 45.5-45.5 0-7.906-6.62-14.538-14.5-14.5zm-161.889-342.005h2.494c6.454 0 11.704 5.25 11.704 11.704s-5.25 11.704-11.704 11.704h-2.494zm-159.222 23.407h-2.494c-6.454 0-11.704-5.25-11.704-11.704s5.25-11.704 11.704-11.704h2.494zm154.971 46.178h128.14c12.407 0 22.5 10.093 22.5 22.5v249.92h-15v-242.92c0-7.995-6.505-14.5-14.5-14.5h-128.061c2.803-4.709 5.126-9.732 6.921-15zm120.64 30v242.42h-30.08v-21.308c7.68-4.946 12.781-13.566 12.781-23.36v-26.809c0-9.794-5.101-18.414-12.781-23.359v-35.654c0-22.548-14.175-43.042-35.275-50.998l-76.007-28.649c-4.838-1.826-8.088-6.529-8.088-11.703v-11.657c3.701-2.678 7.164-5.662 10.35-8.923zm-66.71 210.524c-.012 0-.023-.001-.035-.002-1.233-.01-2.233-1.014-2.233-2.249v-47.851c0-1.241 1.01-2.25 2.25-2.25h21.656c7.042 0 12.772 5.729 12.772 12.771v26.809c0 7.042-5.729 12.772-12.772 12.772zm21.63 15v16.896h-15.175c.494-2.424.755-4.932.755-7.5v-9.396zm-286.665 16.896h-15.175v-16.896h14.42v9.396c0 2.568.261 5.076.755 7.5zm-15.184-31.896c-7.042 0-12.772-5.729-12.772-12.772v-26.809c0-7.042 5.729-12.771 12.772-12.771h21.656c1.241 0 2.25 1.01 2.25 2.25v47.851c0 1.235-1.001 2.239-2.233 2.249-.012 0-.023.001-.035.002zm14.429-91.744v24.393h-14.42v-31.243c0-16.342 10.274-31.196 25.565-36.962l76.013-28.651c1.454-.549 2.836-1.226 4.151-1.998 10.817 13.718 27.445 21.958 45.191 21.958s34.375-8.24 45.191-21.958c1.315.772 2.698 1.45 4.154 1.999l76.009 28.649c15.292 5.766 25.566 20.62 25.566 36.962v31.243h-14.42v-24.392c0-20.678-16.822-37.5-37.5-37.5h-198c-20.678 0-37.5 16.822-37.5 37.5zm171.204-85.503c-7.927 11.19-20.849 17.999-34.704 17.999s-26.777-6.809-34.704-17.999c2.017-3.854 3.154-8.19 3.154-12.697v-3.101c9.68 4.197 20.345 6.536 31.55 6.536s21.869-2.339 31.55-6.536v3.101c0 4.507 1.137 8.844 3.154 12.697zm-99.315-203.095c0-13.654 11.108-24.762 24.761-24.762h79.7c13.653 0 24.761 11.108 24.761 24.762v42.359c-3.421-2.599-7.105-4.5-11.045-5.671-8.974-2.667-15.629-.553-22.065 1.493-4.585 1.458-9.326 2.964-15.816 2.964-.046 0-.094 0-.141 0-8.618-.029-13.433-2.631-19.01-5.645-5.211-2.816-11.118-6.008-19.755-6.685-13.397-1.052-27.267 4.524-41.392 16.584v-45.399zm0 66.24c14.634-15.858 28.151-23.416 40.219-22.471 5.472.429 9.145 2.414 13.796 4.927 6.106 3.3 13.706 7.407 26.091 7.448h.192c8.815 0 15.211-2.033 20.358-3.669 5.872-1.867 8.888-2.707 13.247-1.411 5.758 1.711 10.906 6.489 15.319 14.211v48.919c0 35.641-28.984 64.637-64.611 64.637s-64.611-28.996-64.611-64.637zm-161.389 96.078c0-12.407 10.093-22.5 22.5-22.5h128.14c1.795 5.268 4.117 10.291 6.921 15h-128.061c-7.995 0-14.5 6.505-14.5 14.5v38.026c0 4.142 3.358 7.5 7.5 7.5s7.5-3.358 7.5-7.5v-37.526h139.1c3.186 3.26 6.649 6.244 10.35 8.923v11.657c0 5.174-3.25 9.877-8.085 11.702l-76.011 28.65c-21.099 7.956-35.274 28.45-35.274 50.998v35.655c-7.68 4.946-12.781 13.565-12.781 23.359v26.809c0 9.794 5.101 18.414 12.781 23.36v21.307h-30.08v-169.894c0-4.142-3.358-7.5-7.5-7.5s-7.5 3.358-7.5 7.5v169.894h-15zm436.5 294.92h-421c-8.155 0-15.813-3.171-21.571-8.937-5.64-5.632-8.798-13.095-8.925-21.063h112.016c6.848 9.102 17.737 15 29.98 15h135.526c4.142 0 7.5-3.358 7.5-7.5s-3.358-7.5-7.5-7.5h-135.526c-12.407 0-22.5-10.093-22.5-22.5v-11.267c5.614-2.849 9.478-8.665 9.478-15.379v-47.851c0-6.714-3.864-12.53-9.478-15.379v-26.264c0-12.407 10.093-22.5 22.5-22.5h198c12.407 0 22.5 10.093 22.5 22.5v26.264c-5.614 2.849-9.478 8.665-9.478 15.379v47.851c0 6.714 3.864 12.53 9.478 15.379v11.267c0 12.407-10.093 22.5-22.5 22.5h-27.474c-4.142 0-7.5 3.358-7.5 7.5s3.358 7.5 7.5 7.5h27.474c12.242 0 23.131-5.898 29.98-15h112.016c-.268 16.587-13.846 30-30.496 30zm-175.708-346.645c4.142 0 7.5-3.358 7.5-7.5v-13.922c0-4.142-3.358-7.5-7.5-7.5s-7.5 3.358-7.5 7.5v13.922c0 4.143 3.358 7.5 7.5 7.5zm-52.316 39.858c5.246 2.877 11.174 4.432 17.143 4.494 7.621.079 14.144-2.43 17.906-4.494 3.631-1.992 4.96-6.551 2.968-10.183-1.993-3.631-6.552-4.96-10.183-2.968-2.249 1.233-5.871 2.678-10.534 2.646-4.433-.046-7.932-1.464-10.085-2.646-3.633-1.993-8.191-.664-10.183 2.969-1.993 3.631-.664 8.19 2.968 10.182z"/></g></svg>